<mxfile host="Electron" modified="2024-05-15T14:49:49.134Z" agent="Mozilla/5.0 (Windows NT 10.0; Win64; x64) AppleWebKit/537.36 (KHTML, like Gecko) draw.io/22.0.3 Chrome/114.0.5735.289 Electron/25.8.4 Safari/537.36" etag="YyTqvC36w---S9exFna0" version="22.0.3" type="device">
  <diagram name="Crossy Road Activity Diagram" id="mzTvzYQNDdbLBxiP-pPE">
    <mxGraphModel dx="2330" dy="866" grid="1" gridSize="10" guides="1" tooltips="1" connect="1" arrows="1" fold="1" page="1" pageScale="1" pageWidth="850" pageHeight="1100" math="0" shadow="0">
      <root>
        <mxCell id="0" />
        <mxCell id="1" parent="0" />
        <mxCell id="2" value="START" style="ellipse;whiteSpace=wrap;html=1;fillColor=#a9dc76;" parent="1" vertex="1" connectable="0">
          <mxGeometry x="-389.93" y="90" width="80" height="80" as="geometry" />
        </mxCell>
        <mxCell id="lx2DLLhiZAJ4EACYypG2-30" style="edgeStyle=orthogonalEdgeStyle;rounded=0;orthogonalLoop=1;jettySize=auto;html=1;exitX=0;exitY=0.5;exitDx=0;exitDy=0;" edge="1" parent="1" source="QPq4RUjLhZW1vZ7lkCmQ-4">
          <mxGeometry relative="1" as="geometry">
            <mxPoint x="-670" y="250" as="targetPoint" />
            <Array as="points">
              <mxPoint x="-670" y="450" />
              <mxPoint x="-670" y="290" />
            </Array>
          </mxGeometry>
        </mxCell>
        <mxCell id="QPq4RUjLhZW1vZ7lkCmQ-4" value="Approcher le centre" style="text;whiteSpace=wrap;strokeColor=default;align=center;verticalAlign=middle;" parent="1" vertex="1">
          <mxGeometry x="-630.07" y="435" width="140" height="30" as="geometry" />
        </mxCell>
        <mxCell id="qtkTY8LqPuS8JdvmdI7l-3" style="edgeStyle=orthogonalEdgeStyle;rounded=0;orthogonalLoop=1;jettySize=auto;html=1;exitX=0.5;exitY=0;exitDx=0;exitDy=0;startArrow=classic;startFill=1;endArrow=none;endFill=0;" parent="1" source="qtkTY8LqPuS8JdvmdI7l-2" edge="1">
          <mxGeometry relative="1" as="geometry">
            <mxPoint x="-350" y="170" as="targetPoint" />
          </mxGeometry>
        </mxCell>
        <mxCell id="lx2DLLhiZAJ4EACYypG2-14" style="edgeStyle=orthogonalEdgeStyle;rounded=0;orthogonalLoop=1;jettySize=auto;html=1;exitX=0.5;exitY=1;exitDx=0;exitDy=0;entryX=0.5;entryY=0;entryDx=0;entryDy=0;" edge="1" parent="1" source="qtkTY8LqPuS8JdvmdI7l-2" target="lx2DLLhiZAJ4EACYypG2-3">
          <mxGeometry relative="1" as="geometry" />
        </mxCell>
        <mxCell id="qtkTY8LqPuS8JdvmdI7l-2" value="Peut avancer ?" style="rhombus;whiteSpace=wrap;html=1;" parent="1" vertex="1">
          <mxGeometry x="-410" y="250" width="120" height="80" as="geometry" />
        </mxCell>
        <mxCell id="lx2DLLhiZAJ4EACYypG2-22" style="edgeStyle=orthogonalEdgeStyle;rounded=0;orthogonalLoop=1;jettySize=auto;html=1;exitX=0;exitY=0.5;exitDx=0;exitDy=0;entryX=1;entryY=0.5;entryDx=0;entryDy=0;" edge="1" parent="1" source="qtkTY8LqPuS8JdvmdI7l-2" target="lx2DLLhiZAJ4EACYypG2-2">
          <mxGeometry relative="1" as="geometry">
            <Array as="points" />
          </mxGeometry>
        </mxCell>
        <mxCell id="qtkTY8LqPuS8JdvmdI7l-7" value="Non" style="text;whiteSpace=wrap;strokeColor=none;align=center;verticalAlign=middle;" parent="1" vertex="1">
          <mxGeometry x="-378.93" y="353" width="140" height="30" as="geometry" />
        </mxCell>
        <mxCell id="lx2DLLhiZAJ4EACYypG2-29" style="edgeStyle=orthogonalEdgeStyle;rounded=0;orthogonalLoop=1;jettySize=auto;html=1;exitX=0;exitY=0.5;exitDx=0;exitDy=0;" edge="1" parent="1" source="lx2DLLhiZAJ4EACYypG2-2">
          <mxGeometry relative="1" as="geometry">
            <mxPoint x="-350" y="210" as="targetPoint" />
            <Array as="points">
              <mxPoint x="-670" y="290" />
              <mxPoint x="-670" y="210" />
            </Array>
          </mxGeometry>
        </mxCell>
        <mxCell id="lx2DLLhiZAJ4EACYypG2-2" value="Avancer" style="text;whiteSpace=wrap;strokeColor=default;align=center;verticalAlign=middle;" vertex="1" parent="1">
          <mxGeometry x="-630" y="275" width="140" height="30" as="geometry" />
        </mxCell>
        <mxCell id="lx2DLLhiZAJ4EACYypG2-16" style="edgeStyle=orthogonalEdgeStyle;rounded=0;orthogonalLoop=1;jettySize=auto;html=1;exitX=0.5;exitY=1;exitDx=0;exitDy=0;entryX=0.5;entryY=0;entryDx=0;entryDy=0;" edge="1" parent="1" source="lx2DLLhiZAJ4EACYypG2-3" target="lx2DLLhiZAJ4EACYypG2-5">
          <mxGeometry relative="1" as="geometry" />
        </mxCell>
        <mxCell id="lx2DLLhiZAJ4EACYypG2-23" style="edgeStyle=orthogonalEdgeStyle;rounded=0;orthogonalLoop=1;jettySize=auto;html=1;exitX=0;exitY=0.5;exitDx=0;exitDy=0;entryX=1;entryY=0.5;entryDx=0;entryDy=0;" edge="1" parent="1" source="lx2DLLhiZAJ4EACYypG2-3" target="QPq4RUjLhZW1vZ7lkCmQ-4">
          <mxGeometry relative="1" as="geometry" />
        </mxCell>
        <mxCell id="lx2DLLhiZAJ4EACYypG2-3" value="Peut aller à Droite&lt;br&gt;et à&amp;nbsp;Gauche ?" style="rhombus;whiteSpace=wrap;html=1;" vertex="1" parent="1">
          <mxGeometry x="-410" y="410" width="120" height="80" as="geometry" />
        </mxCell>
        <mxCell id="lx2DLLhiZAJ4EACYypG2-31" style="edgeStyle=orthogonalEdgeStyle;rounded=0;orthogonalLoop=1;jettySize=auto;html=1;exitX=0;exitY=0.5;exitDx=0;exitDy=0;" edge="1" parent="1" source="lx2DLLhiZAJ4EACYypG2-4">
          <mxGeometry relative="1" as="geometry">
            <mxPoint x="-670" y="370" as="targetPoint" />
            <Array as="points">
              <mxPoint x="-670" y="610" />
              <mxPoint x="-670" y="450" />
            </Array>
          </mxGeometry>
        </mxCell>
        <mxCell id="lx2DLLhiZAJ4EACYypG2-4" value="Aller à Droite" style="text;whiteSpace=wrap;strokeColor=default;align=center;verticalAlign=middle;" vertex="1" parent="1">
          <mxGeometry x="-630.07" y="595" width="140" height="30" as="geometry" />
        </mxCell>
        <mxCell id="lx2DLLhiZAJ4EACYypG2-19" style="edgeStyle=orthogonalEdgeStyle;rounded=0;orthogonalLoop=1;jettySize=auto;html=1;exitX=0.5;exitY=1;exitDx=0;exitDy=0;entryX=0.5;entryY=0;entryDx=0;entryDy=0;" edge="1" parent="1" source="lx2DLLhiZAJ4EACYypG2-5" target="lx2DLLhiZAJ4EACYypG2-7">
          <mxGeometry relative="1" as="geometry" />
        </mxCell>
        <mxCell id="lx2DLLhiZAJ4EACYypG2-24" value="" style="edgeStyle=orthogonalEdgeStyle;rounded=0;orthogonalLoop=1;jettySize=auto;html=1;" edge="1" parent="1" source="lx2DLLhiZAJ4EACYypG2-5" target="lx2DLLhiZAJ4EACYypG2-4">
          <mxGeometry relative="1" as="geometry" />
        </mxCell>
        <mxCell id="lx2DLLhiZAJ4EACYypG2-5" value="Peut aller à &lt;br&gt;droite ?" style="rhombus;whiteSpace=wrap;html=1;" vertex="1" parent="1">
          <mxGeometry x="-410" y="570" width="120" height="80" as="geometry" />
        </mxCell>
        <mxCell id="lx2DLLhiZAJ4EACYypG2-32" style="edgeStyle=orthogonalEdgeStyle;rounded=0;orthogonalLoop=1;jettySize=auto;html=1;exitX=0;exitY=0.5;exitDx=0;exitDy=0;" edge="1" parent="1" source="lx2DLLhiZAJ4EACYypG2-6">
          <mxGeometry relative="1" as="geometry">
            <mxPoint x="-670" y="530" as="targetPoint" />
            <Array as="points">
              <mxPoint x="-670" y="770" />
              <mxPoint x="-670" y="610" />
            </Array>
          </mxGeometry>
        </mxCell>
        <mxCell id="lx2DLLhiZAJ4EACYypG2-6" value="Aller à gauche" style="text;whiteSpace=wrap;strokeColor=default;align=center;verticalAlign=middle;" vertex="1" parent="1">
          <mxGeometry x="-630.07" y="755" width="140" height="30" as="geometry" />
        </mxCell>
        <mxCell id="lx2DLLhiZAJ4EACYypG2-20" style="edgeStyle=orthogonalEdgeStyle;rounded=0;orthogonalLoop=1;jettySize=auto;html=1;exitX=0.5;exitY=1;exitDx=0;exitDy=0;entryX=0.5;entryY=0;entryDx=0;entryDy=0;" edge="1" parent="1" source="lx2DLLhiZAJ4EACYypG2-7" target="lx2DLLhiZAJ4EACYypG2-9">
          <mxGeometry relative="1" as="geometry" />
        </mxCell>
        <mxCell id="lx2DLLhiZAJ4EACYypG2-25" value="" style="edgeStyle=orthogonalEdgeStyle;rounded=0;orthogonalLoop=1;jettySize=auto;html=1;" edge="1" parent="1" source="lx2DLLhiZAJ4EACYypG2-7" target="lx2DLLhiZAJ4EACYypG2-6">
          <mxGeometry relative="1" as="geometry" />
        </mxCell>
        <mxCell id="lx2DLLhiZAJ4EACYypG2-7" value="Peut aller à&lt;br&gt;Gauche ?" style="rhombus;whiteSpace=wrap;html=1;" vertex="1" parent="1">
          <mxGeometry x="-410" y="730" width="120" height="80" as="geometry" />
        </mxCell>
        <mxCell id="lx2DLLhiZAJ4EACYypG2-33" style="edgeStyle=orthogonalEdgeStyle;rounded=0;orthogonalLoop=1;jettySize=auto;html=1;exitX=0;exitY=0.5;exitDx=0;exitDy=0;" edge="1" parent="1" source="lx2DLLhiZAJ4EACYypG2-8">
          <mxGeometry relative="1" as="geometry">
            <mxPoint x="-670" y="690" as="targetPoint" />
            <Array as="points">
              <mxPoint x="-670" y="930" />
              <mxPoint x="-670" y="770" />
            </Array>
          </mxGeometry>
        </mxCell>
        <mxCell id="lx2DLLhiZAJ4EACYypG2-8" value="Reculer" style="text;whiteSpace=wrap;strokeColor=default;align=center;verticalAlign=middle;" vertex="1" parent="1">
          <mxGeometry x="-630" y="915" width="140" height="30" as="geometry" />
        </mxCell>
        <mxCell id="lx2DLLhiZAJ4EACYypG2-21" style="edgeStyle=orthogonalEdgeStyle;rounded=0;orthogonalLoop=1;jettySize=auto;html=1;exitX=0;exitY=0.5;exitDx=0;exitDy=0;entryX=1;entryY=0.5;entryDx=0;entryDy=0;" edge="1" parent="1" source="lx2DLLhiZAJ4EACYypG2-9" target="lx2DLLhiZAJ4EACYypG2-8">
          <mxGeometry relative="1" as="geometry" />
        </mxCell>
        <mxCell id="lx2DLLhiZAJ4EACYypG2-27" style="edgeStyle=orthogonalEdgeStyle;rounded=0;orthogonalLoop=1;jettySize=auto;html=1;exitX=1;exitY=0.5;exitDx=0;exitDy=0;" edge="1" parent="1" source="lx2DLLhiZAJ4EACYypG2-9">
          <mxGeometry relative="1" as="geometry">
            <mxPoint x="-670" y="850" as="targetPoint" />
            <Array as="points">
              <mxPoint x="-210" y="930" />
              <mxPoint x="-210" y="1010" />
              <mxPoint x="-670" y="1010" />
            </Array>
          </mxGeometry>
        </mxCell>
        <mxCell id="lx2DLLhiZAJ4EACYypG2-9" value="Peut reculer ?" style="rhombus;whiteSpace=wrap;html=1;" vertex="1" parent="1">
          <mxGeometry x="-409.93" y="890" width="120" height="80" as="geometry" />
        </mxCell>
        <mxCell id="lx2DLLhiZAJ4EACYypG2-10" value="Oui" style="text;whiteSpace=wrap;strokeColor=none;align=center;verticalAlign=middle;" vertex="1" parent="1">
          <mxGeometry x="-513" y="419" width="140" height="30" as="geometry" />
        </mxCell>
        <mxCell id="lx2DLLhiZAJ4EACYypG2-11" value="Oui" style="text;whiteSpace=wrap;strokeColor=none;align=center;verticalAlign=middle;" vertex="1" parent="1">
          <mxGeometry x="-513" y="579" width="140" height="30" as="geometry" />
        </mxCell>
        <mxCell id="lx2DLLhiZAJ4EACYypG2-12" value="Oui" style="text;whiteSpace=wrap;strokeColor=none;align=center;verticalAlign=middle;" vertex="1" parent="1">
          <mxGeometry x="-513" y="739" width="140" height="30" as="geometry" />
        </mxCell>
        <mxCell id="lx2DLLhiZAJ4EACYypG2-13" value="Oui" style="text;whiteSpace=wrap;strokeColor=none;align=center;verticalAlign=middle;" vertex="1" parent="1">
          <mxGeometry x="-513" y="898" width="140" height="30" as="geometry" />
        </mxCell>
        <mxCell id="lx2DLLhiZAJ4EACYypG2-15" value="Non" style="text;whiteSpace=wrap;strokeColor=none;align=center;verticalAlign=middle;" vertex="1" parent="1">
          <mxGeometry x="-380" y="515" width="140" height="30" as="geometry" />
        </mxCell>
        <mxCell id="lx2DLLhiZAJ4EACYypG2-17" value="Non" style="text;whiteSpace=wrap;strokeColor=none;align=center;verticalAlign=middle;" vertex="1" parent="1">
          <mxGeometry x="-377.86" y="674" width="140" height="30" as="geometry" />
        </mxCell>
        <mxCell id="lx2DLLhiZAJ4EACYypG2-18" value="Non" style="text;whiteSpace=wrap;strokeColor=none;align=center;verticalAlign=middle;" vertex="1" parent="1">
          <mxGeometry x="-378.93" y="836" width="140" height="30" as="geometry" />
        </mxCell>
        <mxCell id="lx2DLLhiZAJ4EACYypG2-26" value="Oui" style="text;whiteSpace=wrap;strokeColor=none;align=center;verticalAlign=middle;" vertex="1" parent="1">
          <mxGeometry x="-511" y="259" width="140" height="30" as="geometry" />
        </mxCell>
        <mxCell id="lx2DLLhiZAJ4EACYypG2-28" value="Non" style="text;whiteSpace=wrap;strokeColor=none;align=center;verticalAlign=middle;" vertex="1" parent="1">
          <mxGeometry x="-320" y="900" width="140" height="30" as="geometry" />
        </mxCell>
      </root>
    </mxGraphModel>
  </diagram>
</mxfile>
